<svg width="50" height="52" viewBox="0 0 50 52" fill="none" xmlns="http://www.w3.org/2000/svg">
<g filter="url(#filter0_i_366_285)">
<path d="M50 25C50 38.8071 38.8071 50 25 50C11.1929 50 0 38.8071 0 25C0 11.1929 11.1929 0 25 0C38.8071 0 50 11.1929 50 25Z" fill="#2C9EF0"/>
</g>
<g filter="url(#filter1_d_366_285)">
<path d="M44.1861 24.9999C44.1861 35.1736 35.5962 43.421 25 43.421C14.4038 43.421 5.81396 35.1736 5.81396 24.9999C5.81396 14.8262 14.4038 6.57886 25 6.57886C35.5962 6.57886 44.1861 14.8262 44.1861 24.9999Z" fill="#405AE2"/>
</g>
<g filter="url(#filter2_d_366_285)">
<path d="M37.2094 25.0001C37.2094 31.5403 31.7431 36.8422 25.0001 36.8422C18.2571 36.8422 12.7908 31.5403 12.7908 25.0001C12.7908 18.4598 18.2571 13.158 25.0001 13.158C31.7431 13.158 37.2094 18.4598 37.2094 25.0001Z" fill="#877DF3"/>
</g>
<defs>
<filter id="filter0_i_366_285" x="0" y="0" width="50" height="54" filterUnits="userSpaceOnUse" color-interpolation-filters="sRGB">
<feFlood flood-opacity="0" result="BackgroundImageFix"/>
<feBlend mode="normal" in="SourceGraphic" in2="BackgroundImageFix" result="shape"/>
<feColorMatrix in="SourceAlpha" type="matrix" values="0 0 0 0 0 0 0 0 0 0 0 0 0 0 0 0 0 0 127 0" result="hardAlpha"/>
<feOffset dy="4"/>
<feGaussianBlur stdDeviation="2"/>
<feComposite in2="hardAlpha" operator="arithmetic" k2="-1" k3="1"/>
<feColorMatrix type="matrix" values="0 0 0 0 0 0 0 0 0 0 0 0 0 0 0 0 0 0 0.25 0"/>
<feBlend mode="normal" in2="shape" result="effect1_innerShadow_366_285"/>
</filter>
<filter id="filter1_d_366_285" x="1.81396" y="6.57886" width="46.3721" height="44.842" filterUnits="userSpaceOnUse" color-interpolation-filters="sRGB">
<feFlood flood-opacity="0" result="BackgroundImageFix"/>
<feColorMatrix in="SourceAlpha" type="matrix" values="0 0 0 0 0 0 0 0 0 0 0 0 0 0 0 0 0 0 127 0" result="hardAlpha"/>
<feOffset dy="4"/>
<feGaussianBlur stdDeviation="2"/>
<feComposite in2="hardAlpha" operator="out"/>
<feColorMatrix type="matrix" values="0 0 0 0 0 0 0 0 0 0 0 0 0 0 0 0 0 0 0.25 0"/>
<feBlend mode="normal" in2="BackgroundImageFix" result="effect1_dropShadow_366_285"/>
<feBlend mode="normal" in="SourceGraphic" in2="effect1_dropShadow_366_285" result="shape"/>
</filter>
<filter id="filter2_d_366_285" x="8.79077" y="13.158" width="32.4186" height="31.6843" filterUnits="userSpaceOnUse" color-interpolation-filters="sRGB">
<feFlood flood-opacity="0" result="BackgroundImageFix"/>
<feColorMatrix in="SourceAlpha" type="matrix" values="0 0 0 0 0 0 0 0 0 0 0 0 0 0 0 0 0 0 127 0" result="hardAlpha"/>
<feOffset dy="4"/>
<feGaussianBlur stdDeviation="2"/>
<feComposite in2="hardAlpha" operator="out"/>
<feColorMatrix type="matrix" values="0 0 0 0 0 0 0 0 0 0 0 0 0 0 0 0 0 0 0.25 0"/>
<feBlend mode="normal" in2="BackgroundImageFix" result="effect1_dropShadow_366_285"/>
<feBlend mode="normal" in="SourceGraphic" in2="effect1_dropShadow_366_285" result="shape"/>
</filter>
</defs>
</svg>
